# Blender v2.92.0 OBJ File: 'untitled3.blend'
# www.blender.org
o Segment_1Ground
v 0.000000 0.106815 -0.000001
v 0.000000 -0.106819 -0.000001
v 0.000000 0.106815 0.977512
v 0.000000 0.084329 0.999999
v -0.499993 0.084329 0.866028
v -0.488750 0.106815 0.846553
v -0.478247 0.084329 0.878224
v -0.467493 0.106815 0.858475
v -0.456203 0.084329 0.889874
v -0.445945 0.106815 0.869863
v -0.433876 0.084329 0.900971
v -0.424120 0.106815 0.880711
v -0.411280 0.084329 0.911508
v -0.402031 0.106815 0.891011
v -0.388427 0.084329 0.921478
v -0.379693 0.106815 0.900757
v -0.365333 0.084329 0.930875
v -0.357118 0.106815 0.909943
v -0.342012 0.084329 0.939694
v -0.334321 0.106815 0.918563
v -0.318479 0.084329 0.947928
v -0.311317 0.106815 0.926612
v -0.294747 0.084329 0.955574
v -0.288119 0.106815 0.934086
v -0.270832 0.084329 0.962625
v -0.264742 0.106815 0.940979
v -0.246749 0.084329 0.969078
v -0.241200 0.106815 0.947286
v -0.222512 0.084329 0.974928
v -0.217509 0.106815 0.953005
v -0.198138 0.084329 0.980173
v -0.193682 0.106815 0.958132
v -0.173640 0.084329 0.984808
v -0.169735 0.106815 0.962663
v -0.149034 0.084329 0.988831
v -0.145682 0.106815 0.966595
v -0.124335 0.084329 0.992239
v -0.121539 0.106815 0.969926
v -0.099559 0.084329 0.995030
v -0.097320 0.106815 0.972655
v -0.074721 0.084329 0.997203
v -0.073041 0.106815 0.974779
v -0.049837 0.084329 0.998756
v -0.048716 0.106815 0.976297
v -0.024922 0.084329 0.999688
v -0.024361 0.106815 0.977208
v 0.000000 -0.084334 0.999999
v 0.000000 -0.106819 0.977512
v -0.488750 -0.106819 0.846553
v -0.499993 -0.084334 0.866028
v -0.467493 -0.106819 0.858475
v -0.478247 -0.084334 0.878224
v -0.445945 -0.106819 0.869863
v -0.456203 -0.084334 0.889874
v -0.424120 -0.106819 0.880711
v -0.433876 -0.084334 0.900971
v -0.402031 -0.106819 0.891011
v -0.411280 -0.084334 0.911508
v -0.379693 -0.106819 0.900757
v -0.388427 -0.084334 0.921478
v -0.357118 -0.106819 0.909943
v -0.365333 -0.084334 0.930875
v -0.334321 -0.106819 0.918563
v -0.342012 -0.084334 0.939694
v -0.311317 -0.106819 0.926612
v -0.318479 -0.084334 0.947928
v -0.288119 -0.106819 0.934086
v -0.294747 -0.084334 0.955574
v -0.264742 -0.106819 0.940979
v -0.270832 -0.084334 0.962625
v -0.241200 -0.106819 0.947286
v -0.246749 -0.084334 0.969078
v -0.217509 -0.106819 0.953005
v -0.222512 -0.084334 0.974928
v -0.193682 -0.106819 0.958132
v -0.198138 -0.084334 0.980173
v -0.169735 -0.106819 0.962663
v -0.173640 -0.084334 0.984808
v -0.145682 -0.106819 0.966595
v -0.149034 -0.084334 0.988831
v -0.121539 -0.106819 0.969926
v -0.124335 -0.084334 0.992239
v -0.097320 -0.106819 0.972655
v -0.099559 -0.084334 0.995030
v -0.073041 -0.106819 0.974779
v -0.074721 -0.084334 0.997203
v -0.048716 -0.106819 0.976297
v -0.049837 -0.084334 0.998756
v -0.024361 -0.106819 0.977208
v -0.024922 -0.084334 0.999688
vt 0.077525 0.946589
vt 0.086222 0.946589
vt 0.086222 0.947835
vt 0.077525 0.947835
vt 0.077525 0.929995
vt 0.086222 0.929995
vt 0.086222 0.931277
vt 0.077525 0.931277
vt 0.137775 0.854902
vt 0.139545 0.853909
vt 0.141340 0.852961
vt 0.143158 0.852057
vt 0.144998 0.851199
vt 0.146859 0.850387
vt 0.148739 0.849622
vt 0.150638 0.848904
vt 0.152554 0.848234
vt 0.154486 0.847611
vt 0.156434 0.847037
vt 0.158395 0.846511
vt 0.160368 0.846035
vt 0.162353 0.845608
vt 0.164348 0.845231
vt 0.166351 0.844903
vt 0.168362 0.844626
vt 0.170380 0.844398
vt 0.172402 0.844221
vt 0.174428 0.844095
vt 0.176457 0.844019
vt 0.178486 0.843994
vt 0.178486 0.925418
vt 0.077525 0.940263
vt 0.086222 0.940263
vt 0.086222 0.941538
vt 0.077525 0.941538
vt 0.086222 0.932561
vt 0.077525 0.932561
vt 0.077525 0.922390
vt 0.086222 0.922390
vt 0.086222 0.923643
vt 0.077525 0.923643
vt 0.086222 0.942810
vt 0.077525 0.942810
vt 0.086222 0.933847
vt 0.077525 0.933847
vt 0.086222 0.924903
vt 0.077525 0.924903
vt 0.086222 0.944076
vt 0.077525 0.944076
vt 0.086222 0.935132
vt 0.077525 0.935132
vt 0.086222 0.926169
vt 0.077525 0.926169
vt 0.086222 0.945336
vt 0.077525 0.945336
vt 0.086222 0.936417
vt 0.077525 0.936417
vt 0.086222 0.927440
vt 0.077525 0.927440
vt 0.086222 0.937702
vt 0.077525 0.937702
vt 0.086222 0.928716
vt 0.077525 0.928716
vt 0.119921 0.854061
vt 0.119921 0.935485
vt 0.079210 0.864970
vt 0.080980 0.863977
vt 0.082775 0.863028
vt 0.084593 0.862125
vt 0.086432 0.861267
vt 0.088293 0.860455
vt 0.090174 0.859690
vt 0.092073 0.858972
vt 0.093989 0.858301
vt 0.095921 0.857679
vt 0.097868 0.857105
vt 0.099829 0.856579
vt 0.101803 0.856103
vt 0.103787 0.855676
vt 0.105782 0.855298
vt 0.107786 0.854971
vt 0.109797 0.854693
vt 0.111814 0.854466
vt 0.113836 0.854289
vt 0.115863 0.854163
vt 0.117891 0.854087
vt 0.086222 0.938983
vt 0.077525 0.938983
vt 0.097488 0.923439
vt 0.102210 0.923439
vt 0.102210 0.945046
vt 0.101713 0.945543
vt 0.097985 0.945543
vt 0.097488 0.945046
vt 0.077525 0.921144
vt 0.086222 0.921144
vt 0.088102 0.829260
vt 0.083746 0.831703
vt 0.081442 0.827712
vt 0.085898 0.825213
vt 0.092517 0.826926
vt 0.090415 0.822826
vt 0.096989 0.824704
vt 0.094990 0.820552
vt 0.101516 0.822593
vt 0.099620 0.818393
vt 0.106093 0.820596
vt 0.104303 0.816350
vt 0.110719 0.818714
vt 0.109035 0.814424
vt 0.115390 0.816947
vt 0.113814 0.812617
vt 0.120104 0.815298
vt 0.118636 0.810930
vt 0.124857 0.813767
vt 0.123499 0.809364
vt 0.129647 0.812354
vt 0.128399 0.807919
vt 0.134471 0.811062
vt 0.133334 0.806596
vt 0.139326 0.809890
vt 0.138300 0.805398
vt 0.144208 0.808839
vt 0.143295 0.804323
vt 0.149115 0.807911
vt 0.148315 0.803373
vt 0.154044 0.807105
vt 0.153357 0.802549
vt 0.158991 0.806423
vt 0.158418 0.801851
vt 0.163953 0.805863
vt 0.163495 0.801279
vt 0.168928 0.805428
vt 0.168584 0.800833
vt 0.173913 0.805117
vt 0.173683 0.800515
vt 0.178903 0.804931
vt 0.178788 0.800324
vt 0.183895 0.804868
vt 0.183895 0.800261
vt 0.178144 0.793506
vt 0.183253 0.793442
vt 0.183253 0.798050
vt 0.178259 0.798112
vt 0.173039 0.793697
vt 0.173269 0.798299
vt 0.167940 0.794015
vt 0.168284 0.798610
vt 0.162851 0.794460
vt 0.163309 0.799045
vt 0.157774 0.795032
vt 0.158347 0.799604
vt 0.152713 0.795731
vt 0.153399 0.800287
vt 0.147671 0.796555
vt 0.148471 0.801093
vt 0.142651 0.797505
vt 0.143564 0.802021
vt 0.137656 0.798580
vt 0.138682 0.803072
vt 0.132690 0.799779
vt 0.133827 0.804244
vt 0.127755 0.801101
vt 0.129003 0.805536
vt 0.122855 0.802546
vt 0.124213 0.806949
vt 0.117992 0.804112
vt 0.119460 0.808480
vt 0.113170 0.805800
vt 0.114746 0.810130
vt 0.108391 0.807607
vt 0.110075 0.811896
vt 0.103659 0.809533
vt 0.105449 0.813778
vt 0.098977 0.811575
vt 0.100872 0.815775
vt 0.094346 0.813735
vt 0.096346 0.817886
vt 0.089771 0.816008
vt 0.091873 0.820109
vt 0.085254 0.818396
vt 0.087458 0.822442
vt 0.080800 0.820894
vt 0.083104 0.824884
vt 0.090635 0.923936
vt 0.091132 0.923439
vt 0.094860 0.923439
vt 0.095357 0.923936
vt 0.095357 0.945543
vt 0.090635 0.945543
vn -0.0125 0.0000 0.9999
vn -0.3303 0.0000 0.9439
vn 0.0000 1.0000 0.0000
vn -0.1367 0.0000 0.9906
vn -0.3066 0.0000 0.9518
vn -0.4673 0.0000 0.8841
vn -0.1120 0.0000 0.9937
vn -0.2828 0.0000 0.9592
vn -0.4451 0.0000 0.8955
vn -0.0871 0.0000 0.9962
vn -0.2588 0.0000 0.9659
vn -0.4226 0.0000 0.9063
vn -0.0623 0.0000 0.9981
vn -0.2346 0.0000 0.9721
vn -0.3999 0.0000 0.9166
vn -0.0374 0.0000 0.9993
vn -0.2103 0.0000 0.9776
vn -0.3769 0.0000 0.9262
vn 0.0000 -1.0000 -0.0000
vn -0.1859 0.0000 0.9826
vn -0.3537 0.0000 0.9354
vn -0.8660 0.0000 -0.5000
vn -0.4892 0.0000 0.8722
vn -0.1613 0.0000 0.9869
vn -0.3459 0.7071 0.6167
vn -0.3304 0.7071 0.6252
vn -0.3147 0.7071 0.6332
vn -0.2988 0.7071 0.6409
vn -0.2828 0.7071 0.6481
vn -0.2665 0.7071 0.6550
vn -0.2501 0.7071 0.6614
vn -0.2335 0.7071 0.6674
vn -0.2168 0.7071 0.6730
vn -0.2000 0.7071 0.6782
vn -0.1830 0.7071 0.6830
vn -0.1659 0.7071 0.6874
vn -0.1487 0.7071 0.6913
vn -0.1315 0.7071 0.6948
vn -0.1141 0.7071 0.6978
vn -0.0967 0.7071 0.7005
vn -0.0792 0.7071 0.7027
vn -0.0616 0.7071 0.7044
vn -0.0440 0.7071 0.7057
vn -0.0264 0.7071 0.7066
vn -0.0088 0.7071 0.7071
vn -0.3459 -0.7071 0.6167
vn -0.3304 -0.7071 0.6252
vn -0.3147 -0.7071 0.6332
vn -0.2988 -0.7071 0.6409
vn -0.2828 -0.7071 0.6481
vn -0.2665 -0.7071 0.6550
vn -0.2501 -0.7071 0.6614
vn -0.2335 -0.7071 0.6674
vn -0.2168 -0.7071 0.6730
vn -0.2000 -0.7071 0.6782
vn -0.1830 -0.7071 0.6830
vn -0.1659 -0.7071 0.6874
vn -0.1487 -0.7071 0.6913
vn -0.1315 -0.7071 0.6948
vn -0.1141 -0.7071 0.6978
vn -0.0967 -0.7071 0.7005
vn -0.0792 -0.7071 0.7027
vn -0.0616 -0.7071 0.7044
vn -0.0440 -0.7071 0.7057
vn -0.0264 -0.7071 0.7066
vn -0.0088 -0.7071 0.7071
vn 1.0000 0.0000 0.0000
s off
f 45/1/1 90/2/1 47/3/1 4/4/1
f 19/5/2 64/6/2 66/7/2 21/8/2
f 6/9/3 8/10/3 10/11/3 12/12/3 14/13/3 16/14/3 18/15/3 20/16/3 22/17/3 24/18/3 26/19/3 28/20/3 30/21/3 32/22/3 34/23/3 36/24/3 38/25/3 40/26/3 42/27/3 44/28/3 46/29/3 3/30/3 1/31/3
f 35/32/4 80/33/4 82/34/4 37/35/4
f 21/8/5 66/7/5 68/36/5 23/37/5
f 7/38/6 52/39/6 54/40/6 9/41/6
f 37/35/7 82/34/7 84/42/7 39/43/7
f 23/37/8 68/36/8 70/44/8 25/45/8
f 9/41/9 54/40/9 56/46/9 11/47/9
f 39/43/10 84/42/10 86/48/10 41/49/10
f 25/45/11 70/44/11 72/50/11 27/51/11
f 11/47/12 56/46/12 58/52/12 13/53/12
f 41/49/13 86/48/13 88/54/13 43/55/13
f 27/51/14 72/50/14 74/56/14 29/57/14
f 13/53/15 58/52/15 60/58/15 15/59/15
f 43/55/16 88/54/16 90/2/16 45/1/16
f 29/57/17 74/56/17 76/60/17 31/61/17
f 15/59/18 60/58/18 62/62/18 17/63/18
f 49/64/19 2/65/19 48/66/19 89/67/19 87/68/19 85/69/19 83/70/19 81/71/19 79/72/19 77/73/19 75/74/19 73/75/19 71/76/19 69/77/19 67/78/19 65/79/19 63/80/19 61/81/19 59/82/19 57/83/19 55/84/19 53/85/19 51/86/19
f 31/61/20 76/60/20 78/87/20 33/88/20
f 17/63/21 62/62/21 64/6/21 19/5/21
f 1/89/22 2/90/22 49/91/22 50/92/22 5/93/22 6/94/22
f 5/95/23 50/96/23 52/39/23 7/38/23
f 33/88/24 78/87/24 80/33/24 35/32/24
f 8/97/25 6/98/25 5/99/25 7/100/25
f 10/101/26 8/97/26 7/100/26 9/102/26
f 12/103/27 10/101/27 9/102/27 11/104/27
f 14/105/28 12/103/28 11/104/28 13/106/28
f 16/107/29 14/105/29 13/106/29 15/108/29
f 18/109/30 16/107/30 15/108/30 17/110/30
f 20/111/31 18/109/31 17/110/31 19/112/31
f 22/113/32 20/111/32 19/112/32 21/114/32
f 24/115/33 22/113/33 21/114/33 23/116/33
f 26/117/34 24/115/34 23/116/34 25/118/34
f 28/119/35 26/117/35 25/118/35 27/120/35
f 30/121/36 28/119/36 27/120/36 29/122/36
f 32/123/37 30/121/37 29/122/37 31/124/37
f 34/125/38 32/123/38 31/124/38 33/126/38
f 36/127/39 34/125/39 33/126/39 35/128/39
f 38/129/40 36/127/40 35/128/40 37/130/40
f 40/131/41 38/129/41 37/130/41 39/132/41
f 42/133/42 40/131/42 39/132/42 41/134/42
f 44/135/43 42/133/43 41/134/43 43/136/43
f 46/137/44 44/135/44 43/136/44 45/138/44
f 3/139/45 46/137/45 45/138/45 4/140/45
f 52/141/46 50/142/46 49/143/46 51/144/46
f 54/145/47 52/141/47 51/144/47 53/146/47
f 56/147/48 54/145/48 53/146/48 55/148/48
f 58/149/49 56/147/49 55/148/49 57/150/49
f 60/151/50 58/149/50 57/150/50 59/152/50
f 62/153/51 60/151/51 59/152/51 61/154/51
f 64/155/52 62/153/52 61/154/52 63/156/52
f 66/157/53 64/155/53 63/156/53 65/158/53
f 68/159/54 66/157/54 65/158/54 67/160/54
f 70/161/55 68/159/55 67/160/55 69/162/55
f 72/163/56 70/161/56 69/162/56 71/164/56
f 74/165/57 72/163/57 71/164/57 73/166/57
f 76/167/58 74/165/58 73/166/58 75/168/58
f 78/169/59 76/167/59 75/168/59 77/170/59
f 80/171/60 78/169/60 77/170/60 79/172/60
f 82/173/61 80/171/61 79/172/61 81/174/61
f 84/175/62 82/173/62 81/174/62 83/176/62
f 86/177/63 84/175/63 83/176/63 85/178/63
f 88/179/64 86/177/64 85/178/64 87/180/64
f 90/181/65 88/179/65 87/180/65 89/182/65
f 47/183/66 90/181/66 89/182/66 48/184/66
f 3/185/67 4/186/67 47/187/67 48/188/67 2/189/67 1/190/67
