# Blender v2.92.0 OBJ File: 'untitled5.blend'
# www.blender.org
mtllib untitled6.mtl
o Segment_Let
v 0.000000 0.106815 -0.000001
v 0.000000 -0.106819 -0.000001
v 0.000000 0.106815 0.977512
v 0.000000 0.084329 0.999999
v -0.499993 0.084329 0.866028
v -0.488750 0.106815 0.846553
v -0.478247 0.084329 0.878224
v -0.467493 0.106815 0.858475
v -0.456203 0.084329 0.889874
v -0.445945 0.106815 0.869863
v -0.433876 0.084329 0.900971
v -0.424120 0.106815 0.880711
v -0.411280 0.084329 0.911508
v -0.402031 0.106815 0.891011
v -0.388427 0.084329 0.921478
v -0.379693 0.106815 0.900757
v -0.365333 0.084329 0.930875
v -0.357118 0.106815 0.909943
v -0.342012 0.084329 0.939694
v -0.334321 0.106815 0.918563
v -0.318479 0.084329 0.947928
v -0.311317 0.106815 0.926612
v -0.294747 0.084329 0.955574
v -0.288119 0.106815 0.934086
v -0.270832 0.084329 0.962625
v -0.264742 0.106815 0.940979
v -0.246749 0.084329 0.969078
v -0.241200 0.106815 0.947286
v -0.222512 0.084329 0.974928
v -0.217509 0.106815 0.953005
v -0.198138 0.084329 0.980173
v -0.193682 0.106815 0.958132
v -0.173640 0.084329 0.984808
v -0.169735 0.106815 0.962663
v -0.149034 0.084329 0.988831
v -0.145682 0.106815 0.966595
v -0.124335 0.084329 0.992239
v -0.121539 0.106815 0.969926
v -0.099559 0.084329 0.995030
v -0.097320 0.106815 0.972655
v -0.074721 0.084329 0.997203
v -0.073041 0.106815 0.974779
v -0.049837 0.084329 0.998756
v -0.048716 0.106815 0.976297
v -0.024922 0.084329 0.999688
v -0.024361 0.106815 0.977208
v 0.000000 -0.084334 0.999999
v 0.000000 -0.106819 0.977512
v -0.488750 -0.106819 0.846553
v -0.499993 -0.084334 0.866028
v -0.467493 -0.106819 0.858475
v -0.478247 -0.084334 0.878224
v -0.445945 -0.106819 0.869863
v -0.456203 -0.084334 0.889874
v -0.424120 -0.106819 0.880711
v -0.433876 -0.084334 0.900971
v -0.402031 -0.106819 0.891011
v -0.411280 -0.084334 0.911508
v -0.379693 -0.106819 0.900757
v -0.388427 -0.084334 0.921478
v -0.357118 -0.106819 0.909943
v -0.365333 -0.084334 0.930875
v -0.334321 -0.106819 0.918563
v -0.342012 -0.084334 0.939694
v -0.311317 -0.106819 0.926612
v -0.318479 -0.084334 0.947928
v -0.288119 -0.106819 0.934086
v -0.294747 -0.084334 0.955574
v -0.264742 -0.106819 0.940979
v -0.270832 -0.084334 0.962625
v -0.241200 -0.106819 0.947286
v -0.246749 -0.084334 0.969078
v -0.217509 -0.106819 0.953005
v -0.222512 -0.084334 0.974928
v -0.193682 -0.106819 0.958132
v -0.198138 -0.084334 0.980173
v -0.169735 -0.106819 0.962663
v -0.173640 -0.084334 0.984808
v -0.145682 -0.106819 0.966595
v -0.149034 -0.084334 0.988831
v -0.121539 -0.106819 0.969926
v -0.124335 -0.084334 0.992239
v -0.097320 -0.106819 0.972655
v -0.099559 -0.084334 0.995030
v -0.073041 -0.106819 0.974779
v -0.074721 -0.084334 0.997203
v -0.048716 -0.106819 0.976297
v -0.049837 -0.084334 0.998756
v -0.024361 -0.106819 0.977208
v -0.024922 -0.084334 0.999688
vt 0.421831 0.285562
vt 0.439771 0.285562
vt 0.439771 0.288131
vt 0.421831 0.288131
vt 0.421831 0.251330
vt 0.439771 0.251330
vt 0.439771 0.253975
vt 0.421831 0.253975
vt 0.379102 0.034511
vt 0.383416 0.032092
vt 0.387789 0.029781
vt 0.392218 0.027580
vt 0.396700 0.025489
vt 0.401233 0.023512
vt 0.405815 0.021647
vt 0.410441 0.019898
vt 0.415109 0.018265
vt 0.419816 0.016748
vt 0.424560 0.015349
vt 0.429338 0.014069
vt 0.434146 0.012909
vt 0.438981 0.011868
vt 0.443840 0.010949
vt 0.448722 0.010151
vt 0.453621 0.009475
vt 0.458536 0.008921
vt 0.463463 0.008490
vt 0.468399 0.008182
vt 0.473342 0.007997
vt 0.478286 0.007936
vt 0.478286 0.206304
vt 0.421831 0.272511
vt 0.439771 0.272511
vt 0.439771 0.275143
vt 0.421831 0.275143
vt 0.439771 0.256624
vt 0.421831 0.256624
vt 0.421831 0.235640
vt 0.439771 0.235640
vt 0.439771 0.238226
vt 0.421831 0.238226
vt 0.439771 0.277765
vt 0.421831 0.277765
vt 0.439771 0.259275
vt 0.421831 0.259275
vt 0.439771 0.240825
vt 0.421831 0.240825
vt 0.439771 0.280377
vt 0.421831 0.280377
vt 0.439771 0.261927
vt 0.421831 0.261927
vt 0.439771 0.243437
vt 0.421831 0.243437
vt 0.439771 0.282976
vt 0.421831 0.282976
vt 0.439771 0.264579
vt 0.421831 0.264579
vt 0.439771 0.246060
vt 0.421831 0.246060
vt 0.439771 0.267227
vt 0.421831 0.267227
vt 0.439771 0.248691
vt 0.421831 0.248691
vt 0.363045 0.006983
vt 0.363045 0.203670
vt 0.264702 0.033334
vt 0.268978 0.030936
vt 0.273314 0.028644
vt 0.277705 0.026461
vt 0.282150 0.024389
vt 0.286644 0.022428
vt 0.291187 0.020580
vt 0.295773 0.018845
vt 0.300403 0.017225
vt 0.305070 0.015722
vt 0.309774 0.014335
vt 0.314511 0.013066
vt 0.319278 0.011915
vt 0.324072 0.010883
vt 0.328890 0.009971
vt 0.333730 0.009180
vt 0.338588 0.008510
vt 0.343461 0.007961
vt 0.348346 0.007533
vt 0.353241 0.007228
vt 0.358141 0.007044
vt 0.439771 0.269872
vt 0.421831 0.269872
vt 0.317151 0.314904
vt 0.317151 0.297823
vt 0.395308 0.297823
vt 0.397106 0.299621
vt 0.397106 0.313106
vt 0.395308 0.314904
vt 0.421831 0.233070
vt 0.439771 0.233070
vt 0.275392 0.278745
vt 0.269821 0.281870
vt 0.266874 0.276766
vt 0.272574 0.273569
vt 0.281040 0.275760
vt 0.278351 0.270515
vt 0.286761 0.272917
vt 0.284204 0.267607
vt 0.292550 0.270217
vt 0.290126 0.264845
vt 0.298406 0.267663
vt 0.296116 0.262232
vt 0.304323 0.265255
vt 0.302169 0.259768
vt 0.310298 0.262996
vt 0.308282 0.257457
vt 0.316328 0.260886
vt 0.314450 0.255299
vt 0.322408 0.258927
vt 0.320671 0.253295
vt 0.328535 0.257120
vt 0.326939 0.251446
vt 0.334706 0.255467
vt 0.333251 0.249755
vt 0.340916 0.253968
vt 0.339604 0.248222
vt 0.347161 0.252624
vt 0.345993 0.246847
vt 0.353438 0.251437
vt 0.352414 0.245632
vt 0.359742 0.250406
vt 0.358864 0.244578
vt 0.366070 0.249533
vt 0.365337 0.243684
vt 0.372418 0.248818
vt 0.371831 0.242953
vt 0.378782 0.248261
vt 0.378342 0.242383
vt 0.385158 0.247863
vt 0.384864 0.241976
vt 0.391541 0.247624
vt 0.391395 0.241732
vt 0.397927 0.247545
vt 0.397927 0.241650
vt 0.390571 0.233010
vt 0.397105 0.232929
vt 0.397105 0.238823
vt 0.390718 0.238902
vt 0.384040 0.233254
vt 0.384334 0.239141
vt 0.377518 0.233662
vt 0.377958 0.239539
vt 0.371008 0.234231
vt 0.371594 0.240096
vt 0.364513 0.234963
vt 0.365246 0.240811
vt 0.358040 0.235856
vt 0.358918 0.241684
vt 0.351590 0.236911
vt 0.352614 0.242715
vt 0.345169 0.238126
vt 0.346337 0.243903
vt 0.338780 0.239500
vt 0.340092 0.245247
vt 0.332428 0.241034
vt 0.333882 0.246746
vt 0.326115 0.242725
vt 0.327712 0.248399
vt 0.319847 0.244574
vt 0.321584 0.250206
vt 0.313627 0.246577
vt 0.315504 0.252165
vt 0.307458 0.248736
vt 0.309474 0.254274
vt 0.301346 0.251047
vt 0.303499 0.256534
vt 0.295292 0.253511
vt 0.297582 0.258942
vt 0.289303 0.256124
vt 0.291727 0.261496
vt 0.283380 0.258886
vt 0.285937 0.264196
vt 0.277528 0.261795
vt 0.280217 0.267039
vt 0.271750 0.264848
vt 0.274569 0.270024
vt 0.266052 0.268044
vt 0.268999 0.273148
vt 0.318949 0.339693
vt 0.317151 0.337895
vt 0.317151 0.324410
vt 0.318949 0.322612
vt 0.397106 0.322612
vt 0.397106 0.339693
vn -0.0125 0.0000 0.9999
vn -0.3303 0.0000 0.9439
vn 0.0000 1.0000 0.0000
vn -0.1367 0.0000 0.9906
vn -0.3066 0.0000 0.9518
vn -0.4673 0.0000 0.8841
vn -0.1120 0.0000 0.9937
vn -0.2828 0.0000 0.9592
vn -0.4451 0.0000 0.8955
vn -0.0871 0.0000 0.9962
vn -0.2588 0.0000 0.9659
vn -0.4226 0.0000 0.9063
vn -0.0623 0.0000 0.9981
vn -0.2346 0.0000 0.9721
vn -0.3999 0.0000 0.9166
vn -0.0374 0.0000 0.9993
vn -0.2103 0.0000 0.9776
vn -0.3769 0.0000 0.9262
vn 0.0000 -1.0000 -0.0000
vn -0.1859 0.0000 0.9826
vn -0.3537 0.0000 0.9354
vn -0.8660 0.0000 -0.5000
vn -0.4892 0.0000 0.8722
vn -0.1613 0.0000 0.9869
vn -0.3459 0.7071 0.6167
vn -0.3304 0.7071 0.6252
vn -0.3147 0.7071 0.6332
vn -0.2988 0.7071 0.6409
vn -0.2828 0.7071 0.6481
vn -0.2665 0.7071 0.6550
vn -0.2501 0.7071 0.6614
vn -0.2335 0.7071 0.6674
vn -0.2168 0.7071 0.6730
vn -0.2000 0.7071 0.6782
vn -0.1830 0.7071 0.6830
vn -0.1659 0.7071 0.6874
vn -0.1487 0.7071 0.6913
vn -0.1315 0.7071 0.6948
vn -0.1141 0.7071 0.6978
vn -0.0967 0.7071 0.7005
vn -0.0792 0.7071 0.7027
vn -0.0616 0.7071 0.7044
vn -0.0440 0.7071 0.7057
vn -0.0264 0.7071 0.7066
vn -0.0088 0.7071 0.7071
vn -0.3459 -0.7071 0.6167
vn -0.3304 -0.7071 0.6252
vn -0.3147 -0.7071 0.6332
vn -0.2988 -0.7071 0.6409
vn -0.2828 -0.7071 0.6481
vn -0.2665 -0.7071 0.6550
vn -0.2501 -0.7071 0.6614
vn -0.2335 -0.7071 0.6674
vn -0.2168 -0.7071 0.6730
vn -0.2000 -0.7071 0.6782
vn -0.1830 -0.7071 0.6830
vn -0.1659 -0.7071 0.6874
vn -0.1487 -0.7071 0.6913
vn -0.1315 -0.7071 0.6948
vn -0.1141 -0.7071 0.6978
vn -0.0967 -0.7071 0.7005
vn -0.0792 -0.7071 0.7027
vn -0.0616 -0.7071 0.7044
vn -0.0440 -0.7071 0.7057
vn -0.0264 -0.7071 0.7066
vn -0.0088 -0.7071 0.7071
vn 1.0000 0.0000 0.0000
usemtl Material.012
s off
f 45/1/1 90/2/1 47/3/1 4/4/1
f 19/5/2 64/6/2 66/7/2 21/8/2
f 6/9/3 8/10/3 10/11/3 12/12/3 14/13/3 16/14/3 18/15/3 20/16/3 22/17/3 24/18/3 26/19/3 28/20/3 30/21/3 32/22/3 34/23/3 36/24/3 38/25/3 40/26/3 42/27/3 44/28/3 46/29/3 3/30/3 1/31/3
f 35/32/4 80/33/4 82/34/4 37/35/4
f 21/8/5 66/7/5 68/36/5 23/37/5
f 7/38/6 52/39/6 54/40/6 9/41/6
f 37/35/7 82/34/7 84/42/7 39/43/7
f 23/37/8 68/36/8 70/44/8 25/45/8
f 9/41/9 54/40/9 56/46/9 11/47/9
f 39/43/10 84/42/10 86/48/10 41/49/10
f 25/45/11 70/44/11 72/50/11 27/51/11
f 11/47/12 56/46/12 58/52/12 13/53/12
f 41/49/13 86/48/13 88/54/13 43/55/13
f 27/51/14 72/50/14 74/56/14 29/57/14
f 13/53/15 58/52/15 60/58/15 15/59/15
f 43/55/16 88/54/16 90/2/16 45/1/16
f 29/57/17 74/56/17 76/60/17 31/61/17
f 15/59/18 60/58/18 62/62/18 17/63/18
f 49/64/19 2/65/19 48/66/19 89/67/19 87/68/19 85/69/19 83/70/19 81/71/19 79/72/19 77/73/19 75/74/19 73/75/19 71/76/19 69/77/19 67/78/19 65/79/19 63/80/19 61/81/19 59/82/19 57/83/19 55/84/19 53/85/19 51/86/19
f 31/61/20 76/60/20 78/87/20 33/88/20
f 17/63/21 62/62/21 64/6/21 19/5/21
f 1/89/22 2/90/22 49/91/22 50/92/22 5/93/22 6/94/22
f 5/95/23 50/96/23 52/39/23 7/38/23
f 33/88/24 78/87/24 80/33/24 35/32/24
f 8/97/25 6/98/25 5/99/25 7/100/25
f 10/101/26 8/97/26 7/100/26 9/102/26
f 12/103/27 10/101/27 9/102/27 11/104/27
f 14/105/28 12/103/28 11/104/28 13/106/28
f 16/107/29 14/105/29 13/106/29 15/108/29
f 18/109/30 16/107/30 15/108/30 17/110/30
f 20/111/31 18/109/31 17/110/31 19/112/31
f 22/113/32 20/111/32 19/112/32 21/114/32
f 24/115/33 22/113/33 21/114/33 23/116/33
f 26/117/34 24/115/34 23/116/34 25/118/34
f 28/119/35 26/117/35 25/118/35 27/120/35
f 30/121/36 28/119/36 27/120/36 29/122/36
f 32/123/37 30/121/37 29/122/37 31/124/37
f 34/125/38 32/123/38 31/124/38 33/126/38
f 36/127/39 34/125/39 33/126/39 35/128/39
f 38/129/40 36/127/40 35/128/40 37/130/40
f 40/131/41 38/129/41 37/130/41 39/132/41
f 42/133/42 40/131/42 39/132/42 41/134/42
f 44/135/43 42/133/43 41/134/43 43/136/43
f 46/137/44 44/135/44 43/136/44 45/138/44
f 3/139/45 46/137/45 45/138/45 4/140/45
f 52/141/46 50/142/46 49/143/46 51/144/46
f 54/145/47 52/141/47 51/144/47 53/146/47
f 56/147/48 54/145/48 53/146/48 55/148/48
f 58/149/49 56/147/49 55/148/49 57/150/49
f 60/151/50 58/149/50 57/150/50 59/152/50
f 62/153/51 60/151/51 59/152/51 61/154/51
f 64/155/52 62/153/52 61/154/52 63/156/52
f 66/157/53 64/155/53 63/156/53 65/158/53
f 68/159/54 66/157/54 65/158/54 67/160/54
f 70/161/55 68/159/55 67/160/55 69/162/55
f 72/163/56 70/161/56 69/162/56 71/164/56
f 74/165/57 72/163/57 71/164/57 73/166/57
f 76/167/58 74/165/58 73/166/58 75/168/58
f 78/169/59 76/167/59 75/168/59 77/170/59
f 80/171/60 78/169/60 77/170/60 79/172/60
f 82/173/61 80/171/61 79/172/61 81/174/61
f 84/175/62 82/173/62 81/174/62 83/176/62
f 86/177/63 84/175/63 83/176/63 85/178/63
f 88/179/64 86/177/64 85/178/64 87/180/64
f 90/181/65 88/179/65 87/180/65 89/182/65
f 47/183/66 90/181/66 89/182/66 48/184/66
f 3/185/67 4/186/67 47/187/67 48/188/67 2/189/67 1/190/67
