# Blender v2.92.0 OBJ File: 'untitled5.blend'
# www.blender.org
mtllib untitled5.mtl
o Segment_1Ground
v 0.000000 0.106815 -0.000001
v 0.000000 -0.106819 -0.000001
v 0.000000 0.106815 0.977512
v 0.000000 0.084329 0.999999
v -0.499993 0.084329 0.866028
v -0.488750 0.106815 0.846553
v -0.478247 0.084329 0.878224
v -0.467493 0.106815 0.858475
v -0.456203 0.084329 0.889874
v -0.445945 0.106815 0.869863
v -0.433876 0.084329 0.900971
v -0.424120 0.106815 0.880711
v -0.411280 0.084329 0.911508
v -0.402031 0.106815 0.891011
v -0.388427 0.084329 0.921478
v -0.379693 0.106815 0.900757
v -0.365333 0.084329 0.930875
v -0.357118 0.106815 0.909943
v -0.342012 0.084329 0.939694
v -0.334321 0.106815 0.918563
v -0.318479 0.084329 0.947928
v -0.311317 0.106815 0.926612
v -0.294747 0.084329 0.955574
v -0.288119 0.106815 0.934086
v -0.270832 0.084329 0.962625
v -0.264742 0.106815 0.940979
v -0.246749 0.084329 0.969078
v -0.241200 0.106815 0.947286
v -0.222512 0.084329 0.974928
v -0.217509 0.106815 0.953005
v -0.198138 0.084329 0.980173
v -0.193682 0.106815 0.958132
v -0.173640 0.084329 0.984808
v -0.169735 0.106815 0.962663
v -0.149034 0.084329 0.988831
v -0.145682 0.106815 0.966595
v -0.124335 0.084329 0.992239
v -0.121539 0.106815 0.969926
v -0.099559 0.084329 0.995030
v -0.097320 0.106815 0.972655
v -0.074721 0.084329 0.997203
v -0.073041 0.106815 0.974779
v -0.049837 0.084329 0.998756
v -0.048716 0.106815 0.976297
v -0.024922 0.084329 0.999688
v -0.024361 0.106815 0.977208
v 0.000000 -0.084334 0.999999
v 0.000000 -0.106819 0.977512
v -0.488750 -0.106819 0.846553
v -0.499993 -0.084334 0.866028
v -0.467493 -0.106819 0.858475
v -0.478247 -0.084334 0.878224
v -0.445945 -0.106819 0.869863
v -0.456203 -0.084334 0.889874
v -0.424120 -0.106819 0.880711
v -0.433876 -0.084334 0.900971
v -0.402031 -0.106819 0.891011
v -0.411280 -0.084334 0.911508
v -0.379693 -0.106819 0.900757
v -0.388427 -0.084334 0.921478
v -0.357118 -0.106819 0.909943
v -0.365333 -0.084334 0.930875
v -0.334321 -0.106819 0.918563
v -0.342012 -0.084334 0.939694
v -0.311317 -0.106819 0.926612
v -0.318479 -0.084334 0.947928
v -0.288119 -0.106819 0.934086
v -0.294747 -0.084334 0.955574
v -0.264742 -0.106819 0.940979
v -0.270832 -0.084334 0.962625
v -0.241200 -0.106819 0.947286
v -0.246749 -0.084334 0.969078
v -0.217509 -0.106819 0.953005
v -0.222512 -0.084334 0.974928
v -0.193682 -0.106819 0.958132
v -0.198138 -0.084334 0.980173
v -0.169735 -0.106819 0.962663
v -0.173640 -0.084334 0.984808
v -0.145682 -0.106819 0.966595
v -0.149034 -0.084334 0.988831
v -0.121539 -0.106819 0.969926
v -0.124335 -0.084334 0.992239
v -0.097320 -0.106819 0.972655
v -0.099559 -0.084334 0.995030
v -0.073041 -0.106819 0.974779
v -0.074721 -0.084334 0.997203
v -0.048716 -0.106819 0.976297
v -0.049837 -0.084334 0.998756
v -0.024361 -0.106819 0.977208
v -0.024922 -0.084334 0.999688
vt 0.325651 0.973671
vt 0.338013 0.973671
vt 0.338013 0.975442
vt 0.325651 0.975442
vt 0.325651 0.950085
vt 0.338013 0.950085
vt 0.338013 0.951908
vt 0.325651 0.951908
vt 0.322240 0.879562
vt 0.323962 0.878596
vt 0.325708 0.877673
vt 0.327477 0.876794
vt 0.329267 0.875960
vt 0.331077 0.875170
vt 0.332906 0.874426
vt 0.334753 0.873727
vt 0.336618 0.873075
vt 0.338497 0.872469
vt 0.340392 0.871911
vt 0.342299 0.871400
vt 0.344219 0.870936
vt 0.346150 0.870521
vt 0.348090 0.870154
vt 0.350040 0.869835
vt 0.351996 0.869565
vt 0.353958 0.869344
vt 0.355926 0.869172
vt 0.357897 0.869049
vt 0.359871 0.868975
vt 0.361845 0.868950
vt 0.361845 0.948161
vt 0.325651 0.964679
vt 0.338013 0.964679
vt 0.338013 0.966492
vt 0.325651 0.966492
vt 0.338013 0.953732
vt 0.325651 0.953732
vt 0.325651 0.939274
vt 0.338013 0.939274
vt 0.338013 0.941056
vt 0.325651 0.941056
vt 0.338013 0.968299
vt 0.325651 0.968299
vt 0.338013 0.955559
vt 0.325651 0.955559
vt 0.338013 0.942847
vt 0.325651 0.942847
vt 0.338013 0.970099
vt 0.325651 0.970099
vt 0.338013 0.957387
vt 0.325651 0.957387
vt 0.338013 0.944647
vt 0.325651 0.944647
vt 0.338013 0.971890
vt 0.325651 0.971890
vt 0.338013 0.959213
vt 0.325651 0.959213
vt 0.338013 0.946454
vt 0.325651 0.946454
vt 0.338013 0.961039
vt 0.325651 0.961039
vt 0.338013 0.948267
vt 0.325651 0.948267
vt 0.425413 0.897874
vt 0.425413 0.975882
vt 0.386410 0.908325
vt 0.388106 0.907374
vt 0.389825 0.906465
vt 0.391567 0.905599
vt 0.393330 0.904778
vt 0.395112 0.904000
vt 0.396914 0.903267
vt 0.398733 0.902579
vt 0.400569 0.901936
vt 0.402420 0.901340
vt 0.404286 0.900790
vt 0.406164 0.900286
vt 0.408055 0.899830
vt 0.409956 0.899421
vt 0.411867 0.899059
vt 0.413787 0.898746
vt 0.415714 0.898480
vt 0.417646 0.898262
vt 0.419584 0.898092
vt 0.421525 0.897971
vt 0.423469 0.897898
vt 0.338013 0.962861
vt 0.325651 0.962861
vt 0.378730 0.956794
vt 0.384090 0.956794
vt 0.384090 0.981316
vt 0.383526 0.981881
vt 0.379294 0.981881
vt 0.378730 0.981316
vt 0.325651 0.937504
vt 0.338013 0.937504
vt 0.383959 0.882418
vt 0.381602 0.883037
vt 0.381004 0.880870
vt 0.383415 0.880237
vt 0.386330 0.881858
vt 0.385840 0.879664
vt 0.388714 0.881357
vt 0.388280 0.879152
vt 0.391110 0.880916
vt 0.390731 0.878700
vt 0.393517 0.880535
vt 0.393193 0.878310
vt 0.395932 0.880213
vt 0.395663 0.877981
vt 0.398354 0.879952
vt 0.398141 0.877715
vt 0.400782 0.879752
vt 0.400625 0.877509
vt 0.403215 0.879612
vt 0.403114 0.877366
vt 0.405650 0.879533
vt 0.405605 0.877285
vt 0.408086 0.879514
vt 0.408097 0.877266
vt 0.410522 0.879557
vt 0.410589 0.877310
vt 0.412957 0.879660
vt 0.413080 0.877415
vt 0.415388 0.879823
vt 0.415567 0.877583
vt 0.417814 0.880048
vt 0.418049 0.877812
vt 0.420233 0.880332
vt 0.420524 0.878103
vt 0.422645 0.880677
vt 0.422991 0.878456
vt 0.425048 0.881082
vt 0.425449 0.878870
vt 0.427440 0.881547
vt 0.427896 0.879346
vt 0.429819 0.882071
vt 0.430330 0.879882
vt 0.432184 0.882654
vt 0.432749 0.880478
vt 0.430862 0.876583
vt 0.433282 0.877180
vt 0.432717 0.879356
vt 0.430351 0.878772
vt 0.428428 0.876047
vt 0.427972 0.878248
vt 0.425982 0.875572
vt 0.425580 0.877784
vt 0.423524 0.875157
vt 0.423178 0.877379
vt 0.421056 0.874805
vt 0.420766 0.877034
vt 0.418581 0.874513
vt 0.418346 0.876749
vt 0.416099 0.874284
vt 0.415920 0.876525
vt 0.413612 0.874117
vt 0.413489 0.876361
vt 0.411122 0.874011
vt 0.411055 0.876258
vt 0.408630 0.873968
vt 0.408619 0.876216
vt 0.406137 0.873987
vt 0.406182 0.876234
vt 0.403646 0.874068
vt 0.403747 0.876314
vt 0.401158 0.874211
vt 0.401315 0.876454
vt 0.398674 0.874416
vt 0.398887 0.876654
vt 0.396196 0.874683
vt 0.396464 0.876915
vt 0.393725 0.875012
vt 0.394049 0.877236
vt 0.391263 0.875402
vt 0.391643 0.877618
vt 0.388812 0.875853
vt 0.389247 0.878059
vt 0.386373 0.876366
vt 0.386862 0.878560
vt 0.383947 0.876939
vt 0.384491 0.879120
vt 0.381537 0.877572
vt 0.382135 0.879739
vt 0.370952 0.957358
vt 0.371517 0.956794
vt 0.375748 0.956794
vt 0.376312 0.957358
vt 0.376312 0.981881
vt 0.370952 0.981881
vn -0.0125 0.0000 0.9999
vn -0.3303 0.0000 0.9439
vn 0.0000 1.0000 0.0000
vn -0.1367 0.0000 0.9906
vn -0.3066 0.0000 0.9518
vn -0.4673 0.0000 0.8841
vn -0.1120 0.0000 0.9937
vn -0.2828 0.0000 0.9592
vn -0.4451 0.0000 0.8955
vn -0.0871 0.0000 0.9962
vn -0.2588 0.0000 0.9659
vn -0.4226 0.0000 0.9063
vn -0.0623 0.0000 0.9981
vn -0.2346 0.0000 0.9721
vn -0.3999 0.0000 0.9166
vn -0.0374 0.0000 0.9993
vn -0.2103 0.0000 0.9776
vn -0.3769 0.0000 0.9262
vn 0.0000 -1.0000 -0.0000
vn -0.1859 0.0000 0.9826
vn -0.3537 0.0000 0.9354
vn -0.8660 0.0000 -0.5000
vn -0.4892 0.0000 0.8722
vn -0.1613 0.0000 0.9869
vn -0.3459 0.7071 0.6167
vn -0.3304 0.7071 0.6252
vn -0.3147 0.7071 0.6332
vn -0.2988 0.7071 0.6409
vn -0.2828 0.7071 0.6481
vn -0.2665 0.7071 0.6550
vn -0.2501 0.7071 0.6614
vn -0.2335 0.7071 0.6674
vn -0.2168 0.7071 0.6730
vn -0.2000 0.7071 0.6782
vn -0.1830 0.7071 0.6830
vn -0.1659 0.7071 0.6874
vn -0.1487 0.7071 0.6913
vn -0.1315 0.7071 0.6948
vn -0.1141 0.7071 0.6978
vn -0.0967 0.7071 0.7005
vn -0.0792 0.7071 0.7027
vn -0.0616 0.7071 0.7044
vn -0.0440 0.7071 0.7057
vn -0.0264 0.7071 0.7066
vn -0.0088 0.7071 0.7071
vn -0.3459 -0.7071 0.6167
vn -0.3304 -0.7071 0.6252
vn -0.3147 -0.7071 0.6332
vn -0.2988 -0.7071 0.6409
vn -0.2828 -0.7071 0.6481
vn -0.2665 -0.7071 0.6550
vn -0.2501 -0.7071 0.6614
vn -0.2335 -0.7071 0.6674
vn -0.2168 -0.7071 0.6730
vn -0.2000 -0.7071 0.6782
vn -0.1830 -0.7071 0.6830
vn -0.1659 -0.7071 0.6874
vn -0.1487 -0.7071 0.6913
vn -0.1315 -0.7071 0.6948
vn -0.1141 -0.7071 0.6978
vn -0.0967 -0.7071 0.7005
vn -0.0792 -0.7071 0.7027
vn -0.0616 -0.7071 0.7044
vn -0.0440 -0.7071 0.7057
vn -0.0264 -0.7071 0.7066
vn -0.0088 -0.7071 0.7071
vn 1.0000 0.0000 0.0000
usemtl Material.002
s off
f 45/1/1 90/2/1 47/3/1 4/4/1
f 19/5/2 64/6/2 66/7/2 21/8/2
f 6/9/3 8/10/3 10/11/3 12/12/3 14/13/3 16/14/3 18/15/3 20/16/3 22/17/3 24/18/3 26/19/3 28/20/3 30/21/3 32/22/3 34/23/3 36/24/3 38/25/3 40/26/3 42/27/3 44/28/3 46/29/3 3/30/3 1/31/3
f 35/32/4 80/33/4 82/34/4 37/35/4
f 21/8/5 66/7/5 68/36/5 23/37/5
f 7/38/6 52/39/6 54/40/6 9/41/6
f 37/35/7 82/34/7 84/42/7 39/43/7
f 23/37/8 68/36/8 70/44/8 25/45/8
f 9/41/9 54/40/9 56/46/9 11/47/9
f 39/43/10 84/42/10 86/48/10 41/49/10
f 25/45/11 70/44/11 72/50/11 27/51/11
f 11/47/12 56/46/12 58/52/12 13/53/12
f 41/49/13 86/48/13 88/54/13 43/55/13
f 27/51/14 72/50/14 74/56/14 29/57/14
f 13/53/15 58/52/15 60/58/15 15/59/15
f 43/55/16 88/54/16 90/2/16 45/1/16
f 29/57/17 74/56/17 76/60/17 31/61/17
f 15/59/18 60/58/18 62/62/18 17/63/18
f 49/64/19 2/65/19 48/66/19 89/67/19 87/68/19 85/69/19 83/70/19 81/71/19 79/72/19 77/73/19 75/74/19 73/75/19 71/76/19 69/77/19 67/78/19 65/79/19 63/80/19 61/81/19 59/82/19 57/83/19 55/84/19 53/85/19 51/86/19
f 31/61/20 76/60/20 78/87/20 33/88/20
f 17/63/21 62/62/21 64/6/21 19/5/21
f 1/89/22 2/90/22 49/91/22 50/92/22 5/93/22 6/94/22
f 5/95/23 50/96/23 52/39/23 7/38/23
f 33/88/24 78/87/24 80/33/24 35/32/24
f 8/97/25 6/98/25 5/99/25 7/100/25
f 10/101/26 8/97/26 7/100/26 9/102/26
f 12/103/27 10/101/27 9/102/27 11/104/27
f 14/105/28 12/103/28 11/104/28 13/106/28
f 16/107/29 14/105/29 13/106/29 15/108/29
f 18/109/30 16/107/30 15/108/30 17/110/30
f 20/111/31 18/109/31 17/110/31 19/112/31
f 22/113/32 20/111/32 19/112/32 21/114/32
f 24/115/33 22/113/33 21/114/33 23/116/33
f 26/117/34 24/115/34 23/116/34 25/118/34
f 28/119/35 26/117/35 25/118/35 27/120/35
f 30/121/36 28/119/36 27/120/36 29/122/36
f 32/123/37 30/121/37 29/122/37 31/124/37
f 34/125/38 32/123/38 31/124/38 33/126/38
f 36/127/39 34/125/39 33/126/39 35/128/39
f 38/129/40 36/127/40 35/128/40 37/130/40
f 40/131/41 38/129/41 37/130/41 39/132/41
f 42/133/42 40/131/42 39/132/42 41/134/42
f 44/135/43 42/133/43 41/134/43 43/136/43
f 46/137/44 44/135/44 43/136/44 45/138/44
f 3/139/45 46/137/45 45/138/45 4/140/45
f 52/141/46 50/142/46 49/143/46 51/144/46
f 54/145/47 52/141/47 51/144/47 53/146/47
f 56/147/48 54/145/48 53/146/48 55/148/48
f 58/149/49 56/147/49 55/148/49 57/150/49
f 60/151/50 58/149/50 57/150/50 59/152/50
f 62/153/51 60/151/51 59/152/51 61/154/51
f 64/155/52 62/153/52 61/154/52 63/156/52
f 66/157/53 64/155/53 63/156/53 65/158/53
f 68/159/54 66/157/54 65/158/54 67/160/54
f 70/161/55 68/159/55 67/160/55 69/162/55
f 72/163/56 70/161/56 69/162/56 71/164/56
f 74/165/57 72/163/57 71/164/57 73/166/57
f 76/167/58 74/165/58 73/166/58 75/168/58
f 78/169/59 76/167/59 75/168/59 77/170/59
f 80/171/60 78/169/60 77/170/60 79/172/60
f 82/173/61 80/171/61 79/172/61 81/174/61
f 84/175/62 82/173/62 81/174/62 83/176/62
f 86/177/63 84/175/63 83/176/63 85/178/63
f 88/179/64 86/177/64 85/178/64 87/180/64
f 90/181/65 88/179/65 87/180/65 89/182/65
f 47/183/66 90/181/66 89/182/66 48/184/66
f 3/185/67 4/186/67 47/187/67 48/188/67 2/189/67 1/190/67
