# Blender v2.92.0 OBJ File: 'untitled5.blend'
# www.blender.org
mtllib untitled7.mtl
o Magnet
v -0.129983 0.109787 -0.037521
v -0.084343 0.109926 -0.037521
v -0.129983 0.109787 0.037521
v -0.084343 0.109926 0.037521
v -0.128819 0.076845 0.037521
v -0.127652 0.044633 0.037521
v -0.125081 0.012599 0.037521
v -0.119456 -0.019647 0.037521
v -0.109840 -0.051840 0.037521
v -0.094206 -0.083104 0.037521
v -0.070482 -0.111181 0.037521
v -0.037495 -0.130321 0.037521
v -0.021762 -0.087479 0.037521
v -0.040779 -0.076529 0.037521
v -0.055894 -0.058301 0.037521
v -0.067269 -0.035386 0.037521
v -0.074983 -0.009393 0.037521
v -0.079790 0.018235 0.037521
v -0.082064 0.046823 0.037521
v -0.083179 0.076984 0.037521
v -0.037495 -0.130321 -0.037521
v -0.070482 -0.111181 -0.037521
v -0.094206 -0.083104 -0.037521
v -0.109840 -0.051840 -0.037521
v -0.119456 -0.019647 -0.037521
v -0.125081 0.012599 -0.037521
v -0.127652 0.044633 -0.037521
v -0.128819 0.076845 -0.037521
v -0.083179 0.076984 -0.037521
v -0.082064 0.046823 -0.037521
v -0.079790 0.018235 -0.037521
v -0.074983 -0.009393 -0.037521
v -0.067269 -0.035386 -0.037521
v -0.055894 -0.058301 -0.037521
v -0.040779 -0.076529 -0.037521
v -0.021762 -0.087479 -0.037521
v 0.000000 -0.137537 -0.037521
v 0.000000 -0.091897 -0.037521
v 0.000000 -0.137537 0.037521
v 0.000000 -0.091897 0.037521
v 0.129983 0.109787 -0.037521
v 0.084343 0.109926 -0.037521
v 0.129983 0.109787 0.037521
v 0.084343 0.109926 0.037521
v 0.128819 0.076845 0.037521
v 0.127652 0.044633 0.037521
v 0.125081 0.012599 0.037521
v 0.119456 -0.019647 0.037521
v 0.109840 -0.051840 0.037521
v 0.094206 -0.083104 0.037521
v 0.070482 -0.111181 0.037521
v 0.037495 -0.130321 0.037521
v 0.021762 -0.087479 0.037521
v 0.040779 -0.076529 0.037521
v 0.055894 -0.058301 0.037521
v 0.067269 -0.035386 0.037521
v 0.074983 -0.009393 0.037521
v 0.079790 0.018235 0.037521
v 0.082064 0.046823 0.037521
v 0.083179 0.076984 0.037521
v 0.037495 -0.130321 -0.037521
v 0.070482 -0.111181 -0.037521
v 0.094206 -0.083104 -0.037521
v 0.109840 -0.051840 -0.037521
v 0.119456 -0.019647 -0.037521
v 0.125081 0.012599 -0.037521
v 0.127652 0.044633 -0.037521
v 0.128819 0.076845 -0.037521
v 0.083179 0.076984 -0.037521
v 0.082064 0.046823 -0.037521
v 0.079790 0.018235 -0.037521
v 0.074983 -0.009393 -0.037521
v 0.067269 -0.035386 -0.037521
v 0.055894 -0.058301 -0.037521
v 0.040779 -0.076529 -0.037521
v 0.021762 -0.087479 -0.037521
vt 0.514022 0.871137
vt 0.526670 0.871137
vt 0.526670 0.891934
vt 0.514022 0.891934
vt 0.555756 0.893079
vt 0.555756 0.902194
vt 0.534960 0.902194
vt 0.534960 0.893079
vt 0.534426 0.893221
vt 0.534426 0.902336
vt 0.513630 0.902336
vt 0.513630 0.893221
vt 0.544433 0.846818
vt 0.544472 0.859467
vt 0.535343 0.859789
vt 0.535304 0.847141
vt 0.540369 0.871354
vt 0.540369 0.892150
vt 0.527721 0.892150
vt 0.527721 0.871354
vt 0.513793 0.847473
vt 0.534589 0.847473
vt 0.534589 0.856607
vt 0.513793 0.856607
vt 0.544892 0.869992
vt 0.524095 0.869992
vt 0.524095 0.860858
vt 0.544892 0.860858
vt 0.523141 0.870556
vt 0.514012 0.870233
vt 0.514051 0.857585
vt 0.523180 0.857907
vt 0.533563 0.762464
vt 0.543954 0.760464
vt 0.543954 0.773112
vt 0.537923 0.774337
vt 0.560169 0.846212
vt 0.560169 0.825416
vt 0.566200 0.825416
vt 0.566200 0.846212
vt 0.590792 0.822704
vt 0.569995 0.822704
vt 0.569995 0.814340
vt 0.590792 0.814340
vt 0.569995 0.806401
vt 0.590792 0.806401
vt 0.569995 0.798706
vt 0.590792 0.798706
vt 0.569995 0.791438
vt 0.590792 0.791438
vt 0.566499 0.804619
vt 0.566499 0.825416
vt 0.559456 0.825416
vt 0.559456 0.804619
vt 0.552938 0.825416
vt 0.552938 0.804619
vt 0.547521 0.825416
vt 0.547521 0.804619
vt 0.590820 0.789978
vt 0.570024 0.789978
vt 0.570024 0.779986
vt 0.590820 0.779986
vt 0.570024 0.769417
vt 0.590820 0.769417
vt 0.570024 0.759825
vt 0.590820 0.759825
vt 0.546414 0.759212
vt 0.567210 0.759212
vt 0.567210 0.768011
vt 0.546414 0.768011
vt 0.567210 0.777013
vt 0.546414 0.777013
vt 0.567210 0.785995
vt 0.546414 0.785995
vt 0.567210 0.794891
vt 0.546414 0.794891
vt 0.567210 0.803824
vt 0.546414 0.803824
vt 0.508254 0.819876
vt 0.508577 0.810949
vt 0.521211 0.811556
vt 0.520902 0.819915
vt 0.509290 0.802072
vt 0.521842 0.803634
vt 0.510849 0.793135
vt 0.523174 0.795977
vt 0.513513 0.784214
vt 0.525311 0.788774
vt 0.517846 0.775549
vt 0.528464 0.782423
vt 0.524421 0.767768
vt 0.532653 0.777371
vt 0.516989 0.922219
vt 0.512629 0.934092
vt 0.506598 0.932868
vt 0.506598 0.920220
vt 0.557295 0.993817
vt 0.551265 0.993817
vt 0.551265 0.973021
vt 0.557295 0.973021
vt 0.564704 0.947910
vt 0.564704 0.956255
vt 0.543908 0.956255
vt 0.543908 0.947910
vt 0.564704 0.964153
vt 0.543908 0.964153
vt 0.564704 0.971763
vt 0.543908 0.971763
vt 0.567614 0.974241
vt 0.567614 0.967037
vt 0.588411 0.967037
vt 0.588411 0.974241
vt 0.567614 0.959994
vt 0.588411 0.959994
vt 0.567614 0.953476
vt 0.588411 0.953476
vt 0.567614 0.948059
vt 0.588411 0.948059
vt 0.567614 0.974241
vt 0.578196 0.974241
vt 0.578196 0.995038
vt 0.567614 0.995038
vt 0.588176 0.974241
vt 0.588176 0.995038
vt 0.567614 0.948059
vt 0.567614 0.937944
vt 0.588411 0.937944
vt 0.588411 0.948059
vt 0.567614 0.928325
vt 0.588411 0.928325
vt 0.567614 0.919409
vt 0.588411 0.919409
vt 0.564513 0.920252
vt 0.564513 0.929134
vt 0.543717 0.929134
vt 0.543717 0.920252
vt 0.564513 0.937984
vt 0.543717 0.937984
vt 0.564513 0.946896
vt 0.543717 0.946896
vt 0.542298 0.979632
vt 0.529649 0.979670
vt 0.529340 0.971312
vt 0.541974 0.970705
vt 0.528710 0.963389
vt 0.541262 0.961827
vt 0.527378 0.955733
vt 0.539703 0.952891
vt 0.525240 0.948529
vt 0.537038 0.943969
vt 0.522088 0.942178
vt 0.532705 0.935305
vt 0.517899 0.937127
vt 0.526131 0.927524
vn -0.0030 1.0000 -0.0000
vn -0.9994 -0.0353 0.0000
vn 0.9994 0.0353 -0.0000
vn -0.0000 -0.0000 -1.0000
vn 0.0030 1.0000 -0.0000
vn 0.9994 -0.0353 0.0000
vn -0.9994 0.0353 -0.0000
vn -0.1990 0.9800 0.0000
vn -0.9993 0.0369 -0.0000
vn -0.9969 0.0793 -0.0000
vn -0.9852 0.1714 -0.0000
vn -0.9587 0.2845 0.0000
vn -0.8957 0.4446 -0.0000
vn -0.7698 0.6383 -0.0000
vn -0.4990 0.8666 0.0000
vn 0.1890 -0.9820 0.0000
vn 0.5019 -0.8649 0.0000
vn 0.7638 -0.6454 0.0000
vn 0.8944 -0.4473 0.0000
vn 0.9582 -0.2862 -0.0000
vn 0.9851 -0.1718 0.0000
vn 0.9968 -0.0800 0.0000
vn 0.9993 -0.0362 0.0000
vn 0.1990 0.9800 0.0000
vn 0.9993 0.0369 -0.0000
vn 0.9969 0.0793 -0.0000
vn 0.9852 0.1714 -0.0000
vn 0.9587 0.2845 0.0000
vn 0.8957 0.4446 -0.0000
vn 0.7698 0.6383 -0.0000
vn 0.4990 0.8666 0.0000
vn -0.1890 -0.9820 0.0000
vn -0.5019 -0.8649 0.0000
vn -0.7638 -0.6454 0.0000
vn -0.8944 -0.4473 0.0000
vn -0.9582 -0.2862 -0.0000
vn -0.9851 -0.1718 0.0000
vn -0.9968 -0.0800 0.0000
vn -0.9993 -0.0362 0.0000
usemtl Material.024
s off
f 3/1/1 4/2/1 2/3/1 1/4/1
f 5/5/2 3/6/2 1/7/2 28/8/2
f 4/9/3 20/10/3 29/11/3 2/12/3
f 1/13/4 2/14/4 29/15/4 28/16/4
f 43/17/5 41/18/5 42/19/5 44/20/5
f 45/21/6 68/22/6 41/23/6 43/24/6
f 44/25/7 42/26/7 69/27/7 60/28/7
f 41/29/4 68/30/4 69/31/4 42/32/4
usemtl Material.025
f 61/33/4 37/34/4 38/35/4 76/36/4
f 53/37/8 76/38/8 38/39/8 40/40/8
f 60/41/9 69/42/9 70/43/9 59/44/9
f 59/44/10 70/43/10 71/45/10 58/46/10
f 58/46/11 71/45/11 72/47/11 57/48/11
f 57/48/12 72/47/12 73/49/12 56/50/12
f 56/51/13 73/52/13 74/53/13 55/54/13
f 55/54/14 74/53/14 75/55/14 54/56/14
f 54/56/15 75/55/15 76/57/15 53/58/15
f 39/59/16 37/60/16 61/61/16 52/62/16
f 52/62/17 61/61/17 62/63/17 51/64/17
f 51/64/18 62/63/18 63/65/18 50/66/18
f 50/67/19 63/68/19 64/69/19 49/70/19
f 49/70/20 64/69/20 65/71/20 48/72/20
f 48/72/21 65/71/21 66/73/21 47/74/21
f 47/74/22 66/73/22 67/75/22 46/76/22
f 46/76/23 67/75/23 68/77/23 45/78/23
f 68/79/4 67/80/4 70/81/4 69/82/4
f 67/80/4 66/83/4 71/84/4 70/81/4
f 66/83/4 65/85/4 72/86/4 71/84/4
f 65/85/4 64/87/4 73/88/4 72/86/4
f 64/87/4 63/89/4 74/90/4 73/88/4
f 63/89/4 62/91/4 75/92/4 74/90/4
f 62/91/4 61/33/4 76/36/4 75/92/4
usemtl Material.026
f 21/93/4 36/94/4 38/95/4 37/96/4
f 13/97/24 40/98/24 38/99/24 36/100/24
f 20/101/25 19/102/25 30/103/25 29/104/25
f 19/102/26 18/105/26 31/106/26 30/103/26
f 18/105/27 17/107/27 32/108/27 31/106/27
f 17/109/28 16/110/28 33/111/28 32/112/28
f 16/110/29 15/113/29 34/114/29 33/111/29
f 15/113/30 14/115/30 35/116/30 34/114/30
f 14/115/31 13/117/31 36/118/31 35/116/31
f 39/119/32 12/120/32 21/121/32 37/122/32
f 12/120/33 11/123/33 22/124/33 21/121/33
f 11/125/34 10/126/34 23/127/34 22/128/34
f 10/126/35 9/129/35 24/130/35 23/127/35
f 9/129/36 8/131/36 25/132/36 24/130/36
f 8/133/37 7/134/37 26/135/37 25/136/37
f 7/134/38 6/137/38 27/138/38 26/135/38
f 6/137/39 5/139/39 28/140/39 27/138/39
f 28/141/4 29/142/4 30/143/4 27/144/4
f 27/144/4 30/143/4 31/145/4 26/146/4
f 26/146/4 31/145/4 32/147/4 25/148/4
f 25/148/4 32/147/4 33/149/4 24/150/4
f 24/150/4 33/149/4 34/151/4 23/152/4
f 23/152/4 34/151/4 35/153/4 22/154/4
f 22/154/4 35/153/4 36/94/4 21/93/4
