# Blender v2.92.0 OBJ File: 'untitled4.blend'
# www.blender.org
mtllib Low_Poly_Sphere.mtl
o Sphere
v -0.978913 0.301811 0.070709
v -0.978913 0.281101 0.086601
v -0.978913 0.256982 0.096591
v -0.978913 0.231101 0.099998
v -0.978913 0.205219 0.096591
v -0.978913 0.181101 0.086601
v -0.978913 0.160390 0.070709
v -0.978913 0.144498 0.049998
v -0.978913 0.134508 0.025880
v -0.988818 0.327693 0.023910
v -0.998047 0.317703 0.046192
v -1.005973 0.301811 0.065327
v -1.012054 0.281101 0.080009
v -1.015877 0.256982 0.089238
v -1.017181 0.231101 0.092386
v -1.015877 0.205219 0.089238
v -1.012054 0.181101 0.080009
v -1.005973 0.160390 0.065327
v -0.998047 0.144498 0.046192
v -0.988818 0.134508 0.023910
v -0.997214 0.327693 0.018300
v -1.014268 0.317703 0.035354
v -1.028913 0.301811 0.049998
v -1.040150 0.281101 0.061236
v -1.047214 0.256982 0.068300
v -1.049624 0.231101 0.070709
v -1.047214 0.205219 0.068300
v -1.040150 0.181101 0.061236
v -1.028913 0.160390 0.049998
v -1.014268 0.144498 0.035354
v -0.997214 0.134508 0.018300
v -1.002825 0.327693 0.009903
v -1.025107 0.317703 0.019133
v -1.044241 0.301811 0.027058
v -1.058923 0.281101 0.033140
v -1.068153 0.256982 0.036963
v -1.071301 0.231101 0.038267
v -1.068153 0.205219 0.036963
v -1.058923 0.181101 0.033140
v -1.044241 0.160390 0.027058
v -1.025107 0.144498 0.019133
v -1.002825 0.134508 0.009903
v -1.004795 0.327693 -0.000002
v -1.028913 0.317703 -0.000002
v -1.049624 0.301811 -0.000002
v -1.065516 0.281101 -0.000002
v -1.075506 0.256982 -0.000002
v -1.078913 0.231101 -0.000002
v -1.075506 0.205219 -0.000002
v -1.065516 0.181101 -0.000002
v -1.049624 0.160390 -0.000002
v -1.028913 0.144498 -0.000002
v -1.004795 0.134508 -0.000002
v -1.002825 0.327693 -0.009906
v -1.025107 0.317703 -0.019136
v -1.044241 0.301811 -0.027061
v -1.058923 0.281101 -0.033143
v -1.068153 0.256982 -0.036966
v -1.071301 0.231101 -0.038270
v -1.068153 0.205219 -0.036966
v -1.058923 0.181101 -0.033143
v -1.044241 0.160390 -0.027061
v -1.025107 0.144498 -0.019136
v -1.002825 0.134508 -0.009906
v -0.997214 0.327693 -0.018303
v -1.014268 0.317703 -0.035357
v -1.028913 0.301811 -0.050002
v -1.040150 0.281101 -0.061239
v -1.047214 0.256982 -0.068303
v -1.049624 0.231101 -0.070712
v -1.047214 0.205219 -0.068303
v -1.040150 0.181101 -0.061239
v -1.028913 0.160390 -0.050002
v -1.014268 0.144498 -0.035357
v -0.997214 0.134508 -0.018303
v -0.988818 0.327693 -0.023913
v -0.998047 0.317703 -0.046195
v -1.005973 0.301811 -0.065330
v -1.012054 0.281101 -0.080012
v -1.015877 0.256982 -0.089241
v -1.017181 0.231101 -0.092389
v -1.015877 0.205219 -0.089241
v -1.012054 0.181101 -0.080012
v -1.005973 0.160390 -0.065330
v -0.998047 0.144498 -0.046196
v -0.988818 0.134508 -0.023913
v -0.978913 0.327693 -0.025883
v -0.978913 0.317703 -0.050002
v -0.978913 0.301811 -0.070712
v -0.978913 0.281101 -0.086604
v -0.978913 0.256982 -0.096594
v -0.978913 0.231101 -0.100002
v -0.978913 0.205219 -0.096594
v -0.978913 0.181101 -0.086604
v -0.978913 0.160390 -0.070712
v -0.978913 0.144498 -0.050002
v -0.978913 0.134508 -0.025883
v -0.969009 0.327693 -0.023913
v -0.959779 0.317703 -0.046195
v -0.951853 0.301811 -0.065330
v -0.945772 0.281101 -0.080012
v -0.941949 0.256982 -0.089241
v -0.940645 0.231101 -0.092389
v -0.941949 0.205219 -0.089241
v -0.945772 0.181101 -0.080012
v -0.951853 0.160390 -0.065330
v -0.959779 0.144498 -0.046195
v -0.969009 0.134508 -0.023913
v -0.960612 0.327693 -0.018303
v -0.943558 0.317703 -0.035357
v -0.928913 0.301811 -0.050001
v -0.917676 0.281101 -0.061239
v -0.910612 0.256982 -0.068303
v -0.908202 0.231101 -0.070712
v -0.910612 0.205219 -0.068303
v -0.917676 0.181101 -0.061239
v -0.928913 0.160390 -0.050002
v -0.943558 0.144498 -0.035357
v -0.960612 0.134508 -0.018303
v -0.955001 0.327693 -0.009906
v -0.932719 0.317703 -0.019136
v -0.913585 0.301811 -0.027061
v -0.898903 0.281101 -0.033143
v -0.889673 0.256982 -0.036966
v -0.886525 0.231101 -0.038270
v -0.889673 0.205219 -0.036966
v -0.898903 0.181101 -0.033143
v -0.913585 0.160390 -0.027061
v -0.932719 0.144498 -0.019136
v -0.955001 0.134508 -0.009906
v -0.953031 0.327693 -0.000002
v -0.928913 0.317703 -0.000002
v -0.908202 0.301811 -0.000002
v -0.892311 0.281101 -0.000002
v -0.882321 0.256982 -0.000001
v -0.878913 0.231101 -0.000002
v -0.882321 0.205219 -0.000001
v -0.892311 0.181101 -0.000002
v -0.908202 0.160390 -0.000002
v -0.928913 0.144498 -0.000002
v -0.953031 0.134508 -0.000002
v -0.955001 0.327693 0.009903
v -0.932719 0.317703 0.019133
v -0.913585 0.301811 0.027058
v -0.898903 0.281101 0.033140
v -0.889673 0.256982 0.036963
v -0.886525 0.231101 0.038267
v -0.889673 0.205219 0.036963
v -0.898903 0.181101 0.033140
v -0.913585 0.160390 0.027058
v -0.932719 0.144498 0.019133
v -0.955001 0.134508 0.009903
v -0.960612 0.327693 0.018300
v -0.943558 0.317703 0.035354
v -0.928913 0.301811 0.049998
v -0.917676 0.281101 0.061236
v -0.910612 0.256982 0.068300
v -0.908202 0.231101 0.070709
v -0.910612 0.205219 0.068300
v -0.917676 0.181101 0.061236
v -0.928913 0.160390 0.049998
v -0.943558 0.144498 0.035354
v -0.960612 0.134508 0.018300
v -0.978913 0.131101 -0.000002
v -0.969009 0.327693 0.023910
v -0.959779 0.317703 0.046192
v -0.951853 0.301811 0.065327
v -0.945772 0.281101 0.080009
v -0.941949 0.256982 0.089238
v -0.940645 0.231101 0.092386
v -0.941949 0.205219 0.089238
v -0.945772 0.181101 0.080009
v -0.951853 0.160390 0.065327
v -0.959779 0.144498 0.046192
v -0.969009 0.134508 0.023910
v -0.978913 0.331101 -0.000002
v -0.978913 0.327693 0.025880
v -0.978913 0.317703 0.049998
vt 0.750000 0.833333
vt 0.750000 0.916667
vt 0.687500 0.916667
vt 0.687500 0.833333
vt 0.750000 0.250000
vt 0.750000 0.333333
vt 0.687500 0.333333
vt 0.687500 0.250000
vt 0.750000 0.500000
vt 0.750000 0.583333
vt 0.687500 0.583333
vt 0.687500 0.500000
vt 0.750000 0.750000
vt 0.687500 0.750000
vt 0.750000 0.166667
vt 0.687500 0.166667
vt 0.750000 0.416667
vt 0.687500 0.416667
vt 0.750000 0.666667
vt 0.687500 0.666667
vt 0.750000 0.083333
vt 0.687500 0.083333
vt 0.718750 1.000000
vt 0.718750 0.000000
vt 0.625000 0.500000
vt 0.625000 0.416667
vt 0.625000 0.750000
vt 0.625000 0.666667
vt 0.625000 0.166667
vt 0.625000 0.083333
vt 0.656250 1.000000
vt 0.625000 0.916667
vt 0.625000 0.333333
vt 0.625000 0.583333
vt 0.656250 0.000000
vt 0.625000 0.833333
vt 0.625000 0.250000
vt 0.562500 0.583333
vt 0.562500 0.500000
vt 0.562500 0.833333
vt 0.562500 0.750000
vt 0.562500 0.250000
vt 0.562500 0.166667
vt 0.562500 0.416667
vt 0.562500 0.666667
vt 0.562500 0.083333
vt 0.593750 1.000000
vt 0.562500 0.916667
vt 0.562500 0.333333
vt 0.593750 0.000000
vt 0.500000 0.416667
vt 0.500000 0.333333
vt 0.500000 0.666667
vt 0.500000 0.583333
vt 0.531250 0.000000
vt 0.500000 0.083333
vt 0.500000 0.916667
vt 0.500000 0.833333
vt 0.500000 0.250000
vt 0.500000 0.500000
vt 0.500000 0.750000
vt 0.500000 0.166667
vt 0.531250 1.000000
vt 0.437500 0.500000
vt 0.437500 0.416667
vt 0.437500 0.750000
vt 0.437500 0.666667
vt 0.437500 0.166667
vt 0.437500 0.083333
vt 0.468750 1.000000
vt 0.437500 0.916667
vt 0.437500 0.333333
vt 0.437500 0.583333
vt 0.468750 0.000000
vt 0.437500 0.833333
vt 0.437500 0.250000
vt 0.375000 0.333333
vt 0.375000 0.250000
vt 0.375000 0.583333
vt 0.375000 0.500000
vt 0.375000 0.833333
vt 0.375000 0.750000
vt 0.375000 0.166667
vt 0.375000 0.416667
vt 0.375000 0.666667
vt 0.375000 0.083333
vt 0.406250 1.000000
vt 0.375000 0.916667
vt 0.406250 0.000000
vt 0.343750 1.000000
vt 0.312500 0.916667
vt 0.312500 0.416667
vt 0.312500 0.333333
vt 0.312500 0.666667
vt 0.312500 0.583333
vt 0.343750 0.000000
vt 0.312500 0.083333
vt 0.312500 0.833333
vt 0.312500 0.250000
vt 0.312500 0.500000
vt 0.312500 0.750000
vt 0.312500 0.166667
vt 0.250000 0.250000
vt 0.250000 0.166667
vt 0.250000 0.500000
vt 0.250000 0.416667
vt 0.250000 0.750000
vt 0.250000 0.666667
vt 0.250000 0.083333
vt 0.281250 1.000000
vt 0.250000 0.916667
vt 0.250000 0.333333
vt 0.250000 0.583333
vt 0.281250 0.000000
vt 0.250000 0.833334
vt 0.187500 0.916667
vt 0.187500 0.833333
vt 0.187500 0.333333
vt 0.187500 0.250000
vt 0.187500 0.583333
vt 0.187500 0.500000
vt 0.187500 0.750000
vt 0.187500 0.166667
vt 0.187500 0.416667
vt 0.187500 0.666667
vt 0.187500 0.083333
vt 0.218750 1.000000
vt 0.218750 0.000000
vt 0.125000 0.166667
vt 0.125000 0.083333
vt 0.156250 1.000000
vt 0.125000 0.916667
vt 0.125000 0.416667
vt 0.125000 0.333333
vt 0.125000 0.666667
vt 0.125000 0.583333
vt 0.156250 0.000000
vt 0.125000 0.833333
vt 0.125000 0.250000
vt 0.125000 0.500000
vt 0.125000 0.750000
vt 0.062500 0.833333
vt 0.062500 0.750000
vt 0.062500 0.250000
vt 0.062500 0.166667
vt 0.062500 0.500000
vt 0.062500 0.416667
vt 0.062500 0.666667
vt 0.062500 0.083333
vt 0.093750 1.000000
vt 0.062500 0.916667
vt 0.062500 0.333333
vt 0.062500 0.583333
vt 0.093750 0.000000
vt 0.031250 0.000000
vt 0.000000 0.083333
vt 0.000000 0.916667
vt 0.000000 0.833333
vt 0.000000 0.333333
vt 0.000000 0.250000
vt 0.000000 0.583333
vt 0.000000 0.500000
vt 0.000000 0.750000
vt 0.000000 0.166667
vt 0.000000 0.416667
vt 0.000000 0.666667
vt 0.031250 1.000000
vt 1.000000 0.666667
vt 1.000000 0.750000
vt 0.937500 0.750000
vt 0.937500 0.666667
vt 1.000000 0.083333
vt 1.000000 0.166667
vt 0.937500 0.166667
vt 0.937500 0.083333
vt 1.000000 0.916667
vt 0.968750 1.000000
vt 0.937500 0.916667
vt 1.000000 0.333333
vt 1.000000 0.416667
vt 0.937500 0.416667
vt 0.937500 0.333333
vt 1.000000 0.583333
vt 0.937500 0.583333
vt 0.968750 0.000000
vt 1.000000 0.833333
vt 0.937500 0.833333
vt 1.000000 0.250000
vt 0.937500 0.250000
vt 1.000000 0.500000
vt 0.937500 0.500000
vt 0.875000 0.833333
vt 0.875000 0.750000
vt 0.875000 0.250000
vt 0.875000 0.166667
vt 0.875000 0.500000
vt 0.875000 0.416667
vt 0.875000 0.666667
vt 0.875000 0.083333
vt 0.906250 1.000000
vt 0.875000 0.916667
vt 0.875000 0.333333
vt 0.875000 0.583333
vt 0.906250 0.000000
vt 0.812500 0.666667
vt 0.812500 0.583333
vt 0.843750 0.000000
vt 0.812500 0.083333
vt 0.812500 0.916667
vt 0.812500 0.833333
vt 0.812500 0.333333
vt 0.812500 0.250000
vt 0.812500 0.500000
vt 0.812500 0.750000
vt 0.812500 0.166667
vt 0.812500 0.416667
vt 0.843750 1.000000
vt 0.781250 1.000000
vt 0.781250 0.000000
vn -0.0759 0.9212 0.3816
vn -0.1559 -0.6013 0.7837
vn -0.1935 0.1281 0.9727
vn -0.1202 0.7876 0.6043
vn -0.1202 -0.7876 0.6043
vn -0.1935 -0.1281 0.9727
vn -0.1559 0.6013 0.7837
vn -0.0759 -0.9212 0.3816
vn -0.0260 0.9911 0.1305
vn -0.1807 -0.3764 0.9087
vn -0.1807 0.3764 0.9087
vn -0.0260 -0.9911 0.1305
vn -0.5510 -0.1281 0.8246
vn -0.4439 0.6013 0.6644
vn -0.2161 -0.9212 0.3235
vn -0.0739 0.9911 0.1106
vn -0.5147 -0.3764 0.7703
vn -0.5147 0.3764 0.7703
vn -0.0739 -0.9911 0.1106
vn -0.2161 0.9212 0.3235
vn -0.4439 -0.6013 0.6644
vn -0.5510 0.1281 0.8246
vn -0.3423 0.7876 0.5123
vn -0.3423 -0.7876 0.5123
vn -0.8246 0.1281 0.5510
vn -0.5123 0.7876 0.3423
vn -0.5123 -0.7876 0.3423
vn -0.8246 -0.1281 0.5510
vn -0.6644 0.6013 0.4439
vn -0.3235 -0.9212 0.2161
vn -0.1106 0.9911 0.0739
vn -0.7703 -0.3764 0.5147
vn -0.7703 0.3764 0.5147
vn -0.1106 -0.9911 0.0739
vn -0.3235 0.9212 0.2161
vn -0.6643 -0.6013 0.4439
vn -0.9087 -0.3764 0.1807
vn -0.9087 0.3764 0.1807
vn -0.1305 -0.9911 0.0260
vn -0.3816 0.9212 0.0759
vn -0.7837 -0.6013 0.1559
vn -0.9727 0.1281 0.1935
vn -0.6043 0.7876 0.1202
vn -0.6043 -0.7876 0.1202
vn -0.9727 -0.1281 0.1935
vn -0.7837 0.6013 0.1559
vn -0.3816 -0.9212 0.0759
vn -0.1305 0.9911 0.0260
vn -0.9727 -0.1281 -0.1935
vn -0.7837 0.6013 -0.1559
vn -0.3816 -0.9212 -0.0759
vn -0.1305 0.9911 -0.0260
vn -0.9087 -0.3764 -0.1807
vn -0.9087 0.3764 -0.1807
vn -0.1305 -0.9911 -0.0260
vn -0.3816 0.9212 -0.0759
vn -0.7837 -0.6013 -0.1559
vn -0.9727 0.1281 -0.1935
vn -0.6043 0.7876 -0.1202
vn -0.6043 -0.7876 -0.1202
vn -0.6644 -0.6013 -0.4439
vn -0.8246 0.1281 -0.5510
vn -0.5123 0.7876 -0.3423
vn -0.5123 -0.7876 -0.3423
vn -0.8246 -0.1281 -0.5510
vn -0.6644 0.6013 -0.4439
vn -0.3235 -0.9212 -0.2161
vn -0.1106 0.9911 -0.0739
vn -0.7703 -0.3764 -0.5147
vn -0.7703 0.3764 -0.5147
vn -0.1106 -0.9911 -0.0739
vn -0.3235 0.9212 -0.2161
vn -0.0739 0.9911 -0.1106
vn -0.5147 -0.3764 -0.7703
vn -0.5147 0.3764 -0.7703
vn -0.0739 -0.9911 -0.1106
vn -0.2161 0.9212 -0.3235
vn -0.4439 -0.6013 -0.6644
vn -0.5510 0.1281 -0.8246
vn -0.3423 0.7876 -0.5123
vn -0.3423 -0.7876 -0.5123
vn -0.5510 -0.1281 -0.8246
vn -0.4439 0.6013 -0.6644
vn -0.2161 -0.9212 -0.3235
vn -0.1202 -0.7876 -0.6043
vn -0.1935 -0.1281 -0.9727
vn -0.1559 0.6013 -0.7837
vn -0.0759 -0.9212 -0.3816
vn -0.0260 0.9911 -0.1305
vn -0.1807 -0.3764 -0.9087
vn -0.1807 0.3764 -0.9087
vn -0.0260 -0.9911 -0.1305
vn -0.0759 0.9212 -0.3816
vn -0.1559 -0.6013 -0.7837
vn -0.1935 0.1281 -0.9727
vn -0.1202 0.7876 -0.6043
vn 0.0759 0.9212 -0.3816
vn 0.1559 -0.6013 -0.7837
vn 0.1935 0.1281 -0.9727
vn 0.1202 0.7876 -0.6043
vn 0.1202 -0.7876 -0.6043
vn 0.1935 -0.1281 -0.9727
vn 0.1559 0.6013 -0.7837
vn 0.0759 -0.9212 -0.3816
vn 0.0260 0.9911 -0.1305
vn 0.1807 -0.3764 -0.9087
vn 0.1807 0.3764 -0.9087
vn 0.0260 -0.9911 -0.1305
vn 0.2161 -0.9212 -0.3235
vn 0.0739 0.9911 -0.1106
vn 0.5147 -0.3764 -0.7703
vn 0.5147 0.3764 -0.7703
vn 0.0739 -0.9911 -0.1106
vn 0.2161 0.9212 -0.3235
vn 0.4439 -0.6013 -0.6644
vn 0.5510 0.1281 -0.8246
vn 0.3423 0.7876 -0.5123
vn 0.3423 -0.7876 -0.5123
vn 0.5510 -0.1281 -0.8246
vn 0.4439 0.6013 -0.6644
vn 0.5123 0.7876 -0.3423
vn 0.5123 -0.7876 -0.3423
vn 0.8246 -0.1281 -0.5510
vn 0.6644 0.6013 -0.4439
vn 0.3235 -0.9212 -0.2161
vn 0.1106 0.9911 -0.0739
vn 0.7703 -0.3764 -0.5147
vn 0.7703 0.3764 -0.5147
vn 0.1106 -0.9911 -0.0739
vn 0.3235 0.9212 -0.2161
vn 0.6644 -0.6013 -0.4439
vn 0.8246 0.1281 -0.5510
vn 0.1305 -0.9911 -0.0260
vn 0.3816 0.9212 -0.0759
vn 0.7837 -0.6013 -0.1559
vn 0.9727 0.1281 -0.1935
vn 0.6043 0.7876 -0.1202
vn 0.6043 -0.7876 -0.1202
vn 0.9727 -0.1281 -0.1935
vn 0.7837 0.6013 -0.1559
vn 0.3816 -0.9212 -0.0759
vn 0.1305 0.9911 -0.0260
vn 0.9087 -0.3764 -0.1807
vn 0.9087 0.3764 -0.1807
vn 0.7837 0.6013 0.1559
vn 0.3816 -0.9212 0.0759
vn 0.1305 0.9911 0.0260
vn 0.9087 -0.3764 0.1807
vn 0.9087 0.3764 0.1807
vn 0.1305 -0.9911 0.0260
vn 0.3816 0.9212 0.0759
vn 0.7837 -0.6013 0.1559
vn 0.9727 0.1281 0.1935
vn 0.6043 0.7876 0.1202
vn 0.6043 -0.7876 0.1202
vn 0.9727 -0.1281 0.1935
vn 0.5123 0.7876 0.3423
vn 0.5123 -0.7876 0.3423
vn 0.8246 -0.1281 0.5510
vn 0.6644 0.6013 0.4439
vn 0.3235 -0.9212 0.2161
vn 0.1106 0.9911 0.0739
vn 0.7703 -0.3764 0.5147
vn 0.7703 0.3764 0.5147
vn 0.1106 -0.9911 0.0739
vn 0.3235 0.9212 0.2161
vn 0.6644 -0.6013 0.4439
vn 0.8246 0.1281 0.5510
vn 0.5147 0.3764 0.7703
vn 0.0739 -0.9911 0.1106
vn 0.2161 0.9212 0.3235
vn 0.4439 -0.6013 0.6644
vn 0.5510 0.1281 0.8246
vn 0.3423 0.7876 0.5123
vn 0.3423 -0.7876 0.5123
vn 0.5510 -0.1281 0.8246
vn 0.4439 0.6013 0.6644
vn 0.2161 -0.9212 0.3235
vn 0.0739 0.9911 0.1106
vn 0.5147 -0.3764 0.7703
vn 0.1559 0.6013 0.7837
vn 0.0759 -0.9212 0.3816
vn 0.0260 0.9911 0.1305
vn 0.1807 -0.3764 0.9087
vn 0.1807 0.3764 0.9087
vn 0.0260 -0.9911 0.1305
vn 0.0759 0.9212 0.3816
vn 0.1559 -0.6013 0.7837
vn 0.1935 0.1281 0.9727
vn 0.1202 0.7876 0.6043
vn 0.1202 -0.7876 0.6043
vn 0.1935 -0.1281 0.9727
usemtl None
s off
f 178/1/1 177/2/1 10/3/1 11/4/1
f 7/5/2 6/6/2 17/7/2 18/8/2
f 4/9/3 3/10/3 14/11/3 15/12/3
f 1/13/4 178/1/4 11/4/4 12/14/4
f 8/15/5 7/5/5 18/8/5 19/16/5
f 5/17/6 4/9/6 15/12/6 16/18/6
f 2/19/7 1/13/7 12/14/7 13/20/7
f 9/21/8 8/15/8 19/16/8 20/22/8
f 177/2/9 176/23/9 10/3/9
f 6/6/10 5/17/10 16/18/10 17/7/10
f 3/10/11 2/19/11 13/20/11 14/11/11
f 164/24/12 9/21/12 20/22/12
f 16/18/13 15/12/13 26/25/13 27/26/13
f 13/20/14 12/14/14 23/27/14 24/28/14
f 20/22/15 19/16/15 30/29/15 31/30/15
f 10/3/16 176/31/16 21/32/16
f 17/7/17 16/18/17 27/26/17 28/33/17
f 14/11/18 13/20/18 24/28/18 25/34/18
f 164/35/19 20/22/19 31/30/19
f 11/4/20 10/3/20 21/32/20 22/36/20
f 18/8/21 17/7/21 28/33/21 29/37/21
f 15/12/22 14/11/22 25/34/22 26/25/22
f 12/14/23 11/4/23 22/36/23 23/27/23
f 19/16/24 18/8/24 29/37/24 30/29/24
f 26/25/25 25/34/25 36/38/25 37/39/25
f 23/27/26 22/36/26 33/40/26 34/41/26
f 30/29/27 29/37/27 40/42/27 41/43/27
f 27/26/28 26/25/28 37/39/28 38/44/28
f 24/28/29 23/27/29 34/41/29 35/45/29
f 31/30/30 30/29/30 41/43/30 42/46/30
f 21/32/31 176/47/31 32/48/31
f 28/33/32 27/26/32 38/44/32 39/49/32
f 25/34/33 24/28/33 35/45/33 36/38/33
f 164/50/34 31/30/34 42/46/34
f 22/36/35 21/32/35 32/48/35 33/40/35
f 29/37/36 28/33/36 39/49/36 40/42/36
f 39/49/37 38/44/37 49/51/37 50/52/37
f 36/38/38 35/45/38 46/53/38 47/54/38
f 164/55/39 42/46/39 53/56/39
f 33/40/40 32/48/40 43/57/40 44/58/40
f 40/42/41 39/49/41 50/52/41 51/59/41
f 37/39/42 36/38/42 47/54/42 48/60/42
f 34/41/43 33/40/43 44/58/43 45/61/43
f 41/43/44 40/42/44 51/59/44 52/62/44
f 38/44/45 37/39/45 48/60/45 49/51/45
f 35/45/46 34/41/46 45/61/46 46/53/46
f 42/46/47 41/43/47 52/62/47 53/56/47
f 32/48/48 176/63/48 43/57/48
f 49/51/49 48/60/49 59/64/49 60/65/49
f 46/53/50 45/61/50 56/66/50 57/67/50
f 53/56/51 52/62/51 63/68/51 64/69/51
f 43/57/52 176/70/52 54/71/52
f 50/52/53 49/51/53 60/65/53 61/72/53
f 47/54/54 46/53/54 57/67/54 58/73/54
f 164/74/55 53/56/55 64/69/55
f 44/58/56 43/57/56 54/71/56 55/75/56
f 51/59/57 50/52/57 61/72/57 62/76/57
f 48/60/58 47/54/58 58/73/58 59/64/58
f 45/61/59 44/58/59 55/75/59 56/66/59
f 52/62/60 51/59/60 62/76/60 63/68/60
f 62/76/61 61/72/61 72/77/61 73/78/61
f 59/64/62 58/73/62 69/79/62 70/80/62
f 56/66/63 55/75/63 66/81/63 67/82/63
f 63/68/64 62/76/64 73/78/64 74/83/64
f 60/65/65 59/64/65 70/80/65 71/84/65
f 57/67/66 56/66/66 67/82/66 68/85/66
f 64/69/67 63/68/67 74/83/67 75/86/67
f 54/71/68 176/87/68 65/88/68
f 61/72/69 60/65/69 71/84/69 72/77/69
f 58/73/70 57/67/70 68/85/70 69/79/70
f 164/89/71 64/69/71 75/86/71
f 55/75/72 54/71/72 65/88/72 66/81/72
f 65/88/73 176/90/73 76/91/73
f 72/77/74 71/84/74 82/92/74 83/93/74
f 69/79/75 68/85/75 79/94/75 80/95/75
f 164/96/76 75/86/76 86/97/76
f 66/81/77 65/88/77 76/91/77 77/98/77
f 73/78/78 72/77/78 83/93/78 84/99/78
f 70/80/79 69/79/79 80/95/79 81/100/79
f 67/82/80 66/81/80 77/98/80 78/101/80
f 74/83/81 73/78/81 84/99/81 85/102/81
f 71/84/82 70/80/82 81/100/82 82/92/82
f 68/85/83 67/82/83 78/101/83 79/94/83
f 75/86/84 74/83/84 85/102/84 86/97/84
f 85/102/85 84/99/85 95/103/85 96/104/85
f 82/92/86 81/100/86 92/105/86 93/106/86
f 79/94/87 78/101/87 89/107/87 90/108/87
f 86/97/88 85/102/88 96/104/88 97/109/88
f 76/91/89 176/110/89 87/111/89
f 83/93/90 82/92/90 93/106/90 94/112/90
f 80/95/91 79/94/91 90/108/91 91/113/91
f 164/114/92 86/97/92 97/109/92
f 77/98/93 76/91/93 87/111/93 88/115/93
f 84/99/94 83/93/94 94/112/94 95/103/94
f 81/100/95 80/95/95 91/113/95 92/105/95
f 78/101/96 77/98/96 88/115/96 89/107/96
f 88/115/97 87/111/97 98/116/97 99/117/97
f 95/103/98 94/112/98 105/118/98 106/119/98
f 92/105/99 91/113/99 102/120/99 103/121/99
f 89/107/100 88/115/100 99/117/100 100/122/100
f 96/104/101 95/103/101 106/119/101 107/123/101
f 93/106/102 92/105/102 103/121/102 104/124/102
f 90/108/103 89/107/103 100/122/103 101/125/103
f 97/109/104 96/104/104 107/123/104 108/126/104
f 87/111/105 176/127/105 98/116/105
f 94/112/106 93/106/106 104/124/106 105/118/106
f 91/113/107 90/108/107 101/125/107 102/120/107
f 164/128/108 97/109/108 108/126/108
f 108/126/109 107/123/109 118/129/109 119/130/109
f 98/116/110 176/131/110 109/132/110
f 105/118/111 104/124/111 115/133/111 116/134/111
f 102/120/112 101/125/112 112/135/112 113/136/112
f 164/137/113 108/126/113 119/130/113
f 99/117/114 98/116/114 109/132/114 110/138/114
f 106/119/115 105/118/115 116/134/115 117/139/115
f 103/121/116 102/120/116 113/136/116 114/140/116
f 100/122/117 99/117/117 110/138/117 111/141/117
f 107/123/118 106/119/118 117/139/118 118/129/118
f 104/124/119 103/121/119 114/140/119 115/133/119
f 101/125/120 100/122/120 111/141/120 112/135/120
f 111/141/121 110/138/121 121/142/121 122/143/121
f 118/129/122 117/139/122 128/144/122 129/145/122
f 115/133/123 114/140/123 125/146/123 126/147/123
f 112/135/124 111/141/124 122/143/124 123/148/124
f 119/130/125 118/129/125 129/145/125 130/149/125
f 109/132/126 176/150/126 120/151/126
f 116/134/127 115/133/127 126/147/127 127/152/127
f 113/136/128 112/135/128 123/148/128 124/153/128
f 164/154/129 119/130/129 130/149/129
f 110/138/130 109/132/130 120/151/130 121/142/130
f 117/139/131 116/134/131 127/152/131 128/144/131
f 114/140/132 113/136/132 124/153/132 125/146/132
f 164/155/133 130/149/133 141/156/133
f 121/142/134 120/151/134 131/157/134 132/158/134
f 128/144/135 127/152/135 138/159/135 139/160/135
f 125/146/136 124/153/136 135/161/136 136/162/136
f 122/143/137 121/142/137 132/158/137 133/163/137
f 129/145/138 128/144/138 139/160/138 140/164/138
f 126/147/139 125/146/139 136/162/139 137/165/139
f 123/148/140 122/143/140 133/163/140 134/166/140
f 130/149/141 129/145/141 140/164/141 141/156/141
f 120/151/142 176/167/142 131/157/142
f 127/152/143 126/147/143 137/165/143 138/159/143
f 124/153/144 123/148/144 134/166/144 135/161/144
f 134/168/145 133/169/145 144/170/145 145/171/145
f 141/172/146 140/173/146 151/174/146 152/175/146
f 131/176/147 176/177/147 142/178/147
f 138/179/148 137/180/148 148/181/148 149/182/148
f 135/183/149 134/168/149 145/171/149 146/184/149
f 164/185/150 141/172/150 152/175/150
f 132/186/151 131/176/151 142/178/151 143/187/151
f 139/188/152 138/179/152 149/182/152 150/189/152
f 136/190/153 135/183/153 146/184/153 147/191/153
f 133/169/154 132/186/154 143/187/154 144/170/154
f 140/173/155 139/188/155 150/189/155 151/174/155
f 137/180/156 136/190/156 147/191/156 148/181/156
f 144/170/157 143/187/157 154/192/157 155/193/157
f 151/174/158 150/189/158 161/194/158 162/195/158
f 148/181/159 147/191/159 158/196/159 159/197/159
f 145/171/160 144/170/160 155/193/160 156/198/160
f 152/175/161 151/174/161 162/195/161 163/199/161
f 142/178/162 176/200/162 153/201/162
f 149/182/163 148/181/163 159/197/163 160/202/163
f 146/184/164 145/171/164 156/198/164 157/203/164
f 164/204/165 152/175/165 163/199/165
f 143/187/166 142/178/166 153/201/166 154/192/166
f 150/189/167 149/182/167 160/202/167 161/194/167
f 147/191/168 146/184/168 157/203/168 158/196/168
f 157/203/169 156/198/169 168/205/169 169/206/169
f 164/207/170 163/199/170 175/208/170
f 154/192/171 153/201/171 165/209/171 166/210/171
f 161/194/172 160/202/172 172/211/172 173/212/172
f 158/196/173 157/203/173 169/206/173 170/213/173
f 155/193/174 154/192/174 166/210/174 167/214/174
f 162/195/175 161/194/175 173/212/175 174/215/175
f 159/197/176 158/196/176 170/213/176 171/216/176
f 156/198/177 155/193/177 167/214/177 168/205/177
f 163/199/178 162/195/178 174/215/178 175/208/178
f 153/201/179 176/217/179 165/209/179
f 160/202/180 159/197/180 171/216/180 172/211/180
f 168/205/181 167/214/181 1/13/181 2/19/181
f 175/208/182 174/215/182 8/15/182 9/21/182
f 165/209/183 176/218/183 177/2/183
f 172/211/184 171/216/184 5/17/184 6/6/184
f 169/206/185 168/205/185 2/19/185 3/10/185
f 164/219/186 175/208/186 9/21/186
f 166/210/187 165/209/187 177/2/187 178/1/187
f 173/212/188 172/211/188 6/6/188 7/5/188
f 170/213/189 169/206/189 3/10/189 4/9/189
f 167/214/190 166/210/190 178/1/190 1/13/190
f 174/215/191 173/212/191 7/5/191 8/15/191
f 171/216/192 170/213/192 4/9/192 5/17/192
